<svg width="12" height="13" viewBox="0 0 12 13" fill="none" xmlns="http://www.w3.org/2000/svg">
<path fill-rule="evenodd" clip-rule="evenodd" d="M11.3337 7.33371V10.667C11.3337 11.1975 11.1229 11.7062 10.7479 12.0813C10.3728 12.4563 9.86409 12.667 9.33366 12.667H2.667C2.13656 12.667 1.62785 12.4563 1.25278 12.0813C0.877709 11.7062 0.666995 11.1975 0.666995 10.667V7.33371H11.3337ZM6.00033 0.000379619C6.88699 0.000379619 7.723 0.21638 8.45833 0.599713L8.86233 0.195713C8.92383 0.132039 8.99739 0.0812514 9.07872 0.0463121C9.16006 0.0113727 9.24754 -0.00701812 9.33606 -0.00778733C9.42458 -0.00855654 9.51237 0.00831128 9.5943 0.0418319C9.67623 0.0753525 9.75066 0.124855 9.81326 0.18745C9.87585 0.250045 9.92536 0.324479 9.95888 0.40641C9.9924 0.488341 10.0093 0.576128 10.0085 0.664647C10.0077 0.753167 9.98934 0.840647 9.9544 0.921982C9.91946 1.00332 9.86867 1.07688 9.805 1.13838L9.57166 1.37171C10.1271 1.87137 10.5711 2.48241 10.8746 3.16505C11.1782 3.84769 11.3346 4.58661 11.3337 5.33371V6.00038H0.666995V5.33371C0.666208 4.58668 0.822761 3.84785 1.12646 3.16533C1.43016 2.48281 1.8742 1.8719 2.42966 1.37238L2.19566 1.13905C2.07057 1.01404 2.00026 0.844462 2.00019 0.667615C2.00013 0.490768 2.07032 0.32114 2.19533 0.196046C2.32033 0.0709525 2.48991 0.000640496 2.66676 0.000577983C2.84361 0.000515472 3.01323 0.0707076 3.13833 0.195713L3.54233 0.599713C4.30141 0.204836 5.14468 -0.00077572 6.00033 0.000379619ZM4.00033 2.66705C3.82352 2.66705 3.65395 2.73728 3.52892 2.86231C3.4039 2.98733 3.33366 3.1569 3.33366 3.33371C3.33366 3.51052 3.4039 3.68009 3.52892 3.80512C3.65395 3.93014 3.82352 4.00038 4.00033 4.00038C4.17714 4.00038 4.34671 3.93014 4.47173 3.80512C4.59676 3.68009 4.66699 3.51052 4.66699 3.33371C4.66699 3.1569 4.59676 2.98733 4.47173 2.86231C4.34671 2.73728 4.17714 2.66705 4.00033 2.66705ZM8.00033 2.66705C7.82352 2.66705 7.65395 2.73728 7.52892 2.86231C7.4039 2.98733 7.33366 3.1569 7.33366 3.33371C7.33366 3.51052 7.4039 3.68009 7.52892 3.80512C7.65395 3.93014 7.82352 4.00038 8.00033 4.00038C8.17714 4.00038 8.34671 3.93014 8.47173 3.80512C8.59676 3.68009 8.667 3.51052 8.667 3.33371C8.667 3.1569 8.59676 2.98733 8.47173 2.86231C8.34671 2.73728 8.17714 2.66705 8.00033 2.66705Z" fill="white"/>
</svg>
