<svg width="16" height="16" viewBox="0 0 16 16" fill="none" xmlns="http://www.w3.org/2000/svg">
<path d="M8.00016 1.33301C11.6822 1.33301 14.6668 4.31767 14.6668 7.99967C14.6668 11.6817 11.6822 14.6663 8.00016 14.6663C4.31816 14.6663 1.3335 11.6817 1.3335 7.99967C1.3335 4.31767 4.31816 1.33301 8.00016 1.33301ZM8.00016 2.66634C6.58567 2.66634 5.22912 3.22824 4.22893 4.22844C3.22873 5.22863 2.66683 6.58519 2.66683 7.99967C2.66683 9.41416 3.22873 10.7707 4.22893 11.7709C5.22912 12.7711 6.58567 13.333 8.00016 13.333C9.41465 13.333 10.7712 12.7711 11.7714 11.7709C12.7716 10.7707 13.3335 9.41416 13.3335 7.99967C13.3335 6.58519 12.7716 5.22863 11.7714 4.22844C10.7712 3.22824 9.41465 2.66634 8.00016 2.66634ZM6.58616 5.64234L8.00016 7.05701L9.41416 5.64234C9.4761 5.5804 9.54964 5.53127 9.63057 5.49775C9.71149 5.46422 9.79823 5.44697 9.88583 5.44697C9.97343 5.44697 10.0602 5.46422 10.1411 5.49775C10.222 5.53127 10.2956 5.5804 10.3575 5.64234C10.4194 5.70428 10.4686 5.77781 10.5021 5.85874C10.5356 5.93967 10.5529 6.02641 10.5529 6.11401C10.5529 6.2016 10.5356 6.28834 10.5021 6.36927C10.4686 6.4502 10.4194 6.52373 10.3575 6.58567L8.94283 7.99901L10.3575 9.41368C10.4826 9.53877 10.5529 9.70843 10.5529 9.88534C10.5529 10.0623 10.4826 10.2319 10.3575 10.357C10.2324 10.4821 10.0627 10.5524 9.88583 10.5524C9.70892 10.5524 9.53926 10.4821 9.41416 10.357L8.00016 8.94234L6.58616 10.357C6.46107 10.4821 6.29141 10.5524 6.1145 10.5524C5.93759 10.5524 5.76792 10.4821 5.64283 10.357C5.51774 10.2319 5.44746 10.0623 5.44746 9.88534C5.44746 9.70843 5.51774 9.53877 5.64283 9.41368L7.0575 7.99967L5.6435 6.58567C5.5184 6.46067 5.44809 6.29109 5.44803 6.11424C5.44797 5.9374 5.51816 5.76777 5.64316 5.64267C5.76817 5.51758 5.93775 5.44727 6.11459 5.44721C6.29144 5.44714 6.46107 5.51734 6.58616 5.64234Z" fill="#EF4444"/>
</svg>
