<svg width="14" height="12" viewBox="0 0 14 12" fill="none" xmlns="http://www.w3.org/2000/svg">
<path d="M10.3335 0C11.2176 0 12.0654 0.351189 12.6905 0.976311C13.3156 1.60143 13.6668 2.44928 13.6668 3.33333V8.66667C13.6668 9.55072 13.3156 10.3986 12.6905 11.0237C12.0654 11.6488 11.2176 12 10.3335 12H1.00016C0.823352 12 0.653782 11.9298 0.528758 11.8047C0.403734 11.6797 0.333496 11.5101 0.333496 11.3333V3.33333C0.333496 2.44928 0.684686 1.60143 1.30981 0.976311C1.93493 0.351189 2.78277 0 3.66683 0H10.3335ZM10.3335 1.33333H3.66683C3.1364 1.33333 2.62769 1.54405 2.25262 1.91912C1.87754 2.29419 1.66683 2.8029 1.66683 3.33333V10.6667H10.3335C10.8639 10.6667 11.3726 10.456 11.7477 10.0809C12.1228 9.70581 12.3335 9.1971 12.3335 8.66667V3.33333C12.3335 2.8029 12.1228 2.29419 11.7477 1.91912C11.3726 1.54405 10.8639 1.33333 10.3335 1.33333ZM5.00016 4.66667C5.17697 4.66667 5.34654 4.7369 5.47157 4.86193C5.59659 4.98695 5.66683 5.15652 5.66683 5.33333V6.66667C5.66683 6.84348 5.59659 7.01305 5.47157 7.13807C5.34654 7.2631 5.17697 7.33333 5.00016 7.33333C4.82335 7.33333 4.65378 7.2631 4.52876 7.13807C4.40373 7.01305 4.3335 6.84348 4.3335 6.66667V5.33333C4.3335 5.15652 4.40373 4.98695 4.52876 4.86193C4.65378 4.7369 4.82335 4.66667 5.00016 4.66667ZM9.00016 4.66667C9.16345 4.66669 9.32105 4.72664 9.44308 4.83514C9.5651 4.94365 9.64306 5.09317 9.66216 5.25533L9.66683 5.33333V6.66667C9.66664 6.83659 9.60158 7.00002 9.48493 7.12358C9.36829 7.24714 9.20886 7.32149 9.03923 7.33145C8.86961 7.34141 8.70258 7.28622 8.57228 7.17716C8.44197 7.0681 8.35823 6.9134 8.33816 6.74467L8.3335 6.66667V5.33333C8.3335 5.15652 8.40373 4.98695 8.52876 4.86193C8.65378 4.7369 8.82335 4.66667 9.00016 4.66667Z" fill="white"/>
</svg>
