<svg width="8" height="12" viewBox="0 0 8 12" fill="none" xmlns="http://www.w3.org/2000/svg">
<path d="M1.99984 0.666992C2.35346 0.666992 2.6926 0.807468 2.94265 1.05752C3.19269 1.30756 3.33317 1.6467 3.33317 2.00033C3.33317 2.35395 3.19269 2.69309 2.94265 2.94313C2.6926 3.19318 2.35346 3.33366 1.99984 3.33366C1.64622 3.33366 1.30708 3.19318 1.05703 2.94313C0.80698 2.69309 0.666504 2.35395 0.666504 2.00033C0.666504 1.6467 0.80698 1.30756 1.05703 1.05752C1.30708 0.807468 1.64622 0.666992 1.99984 0.666992ZM3.33317 6.00033C3.33317 5.6467 3.19269 5.30756 2.94265 5.05752C2.6926 4.80747 2.35346 4.66699 1.99984 4.66699C1.64622 4.66699 1.30708 4.80747 1.05703 5.05752C0.80698 5.30756 0.666504 5.6467 0.666504 6.00033C0.666504 6.35395 0.80698 6.69309 1.05703 6.94313C1.30708 7.19318 1.64622 7.33366 1.99984 7.33366C2.35346 7.33366 2.6926 7.19318 2.94265 6.94313C3.19269 6.69309 3.33317 6.35395 3.33317 6.00033ZM3.33317 10.0003C3.33317 9.6467 3.19269 9.30756 2.94265 9.05752C2.6926 8.80747 2.35346 8.66699 1.99984 8.66699C1.64622 8.66699 1.30708 8.80747 1.05703 9.05752C0.80698 9.30756 0.666504 9.6467 0.666504 10.0003C0.666504 10.3539 0.80698 10.6931 1.05703 10.9431C1.30708 11.1932 1.64622 11.3337 1.99984 11.3337C2.35346 11.3337 2.6926 11.1932 2.94265 10.9431C3.19269 10.6931 3.33317 10.3539 3.33317 10.0003ZM7.33317 6.00033C7.33317 5.6467 7.19269 5.30756 6.94265 5.05752C6.6926 4.80747 6.35346 4.66699 5.99984 4.66699C5.64621 4.66699 5.30708 4.80747 5.05703 5.05752C4.80698 5.30756 4.6665 5.6467 4.6665 6.00033C4.6665 6.35395 4.80698 6.69309 5.05703 6.94313C5.30708 7.19318 5.64621 7.33366 5.99984 7.33366C6.35346 7.33366 6.6926 7.19318 6.94265 6.94313C7.19269 6.69309 7.33317 6.35395 7.33317 6.00033ZM5.99984 8.66699C6.35346 8.66699 6.6926 8.80747 6.94265 9.05752C7.19269 9.30756 7.33317 9.6467 7.33317 10.0003C7.33317 10.3539 7.19269 10.6931 6.94265 10.9431C6.6926 11.1932 6.35346 11.3337 5.99984 11.3337C5.64621 11.3337 5.30708 11.1932 5.05703 10.9431C4.80698 10.6931 4.6665 10.3539 4.6665 10.0003C4.6665 9.6467 4.80698 9.30756 5.05703 9.05752C5.30708 8.80747 5.64621 8.66699 5.99984 8.66699ZM7.33317 2.00033C7.33317 1.6467 7.19269 1.30756 6.94265 1.05752C6.6926 0.807468 6.35346 0.666992 5.99984 0.666992C5.64621 0.666992 5.30708 0.807468 5.05703 1.05752C4.80698 1.30756 4.6665 1.6467 4.6665 2.00033C4.6665 2.35395 4.80698 2.69309 5.05703 2.94313C5.30708 3.19318 5.64621 3.33366 5.99984 3.33366C6.35346 3.33366 6.6926 3.19318 6.94265 2.94313C7.19269 2.69309 7.33317 2.35395 7.33317 2.00033Z" fill="#74787C"/>
</svg>
