<svg width="16" height="16" viewBox="0 0 16 16" fill="none" xmlns="http://www.w3.org/2000/svg">
<path fill-rule="evenodd" clip-rule="evenodd" d="M10.6667 10C11.5373 10 12.2787 10.5567 12.5533 11.3333H13.3333C13.5101 11.3333 13.6797 11.4036 13.8047 11.5286C13.9298 11.6536 14 11.8232 14 12C14 12.1768 13.9298 12.3464 13.8047 12.4714C13.6797 12.5964 13.5101 12.6667 13.3333 12.6667H12.5533C12.4156 13.057 12.1602 13.395 11.8223 13.6341C11.4844 13.8732 11.0806 14.0016 10.6667 14.0016C10.2527 14.0016 9.84897 13.8732 9.51107 13.6341C9.17316 13.395 8.91774 13.057 8.78 12.6667H2.66667C2.48986 12.6667 2.32029 12.5964 2.19526 12.4714C2.07024 12.3464 2 12.1768 2 12C2 11.8232 2.07024 11.6536 2.19526 11.5286C2.32029 11.4036 2.48986 11.3333 2.66667 11.3333H8.78C8.91801 10.9433 9.17355 10.6056 9.51143 10.3668C9.84932 10.128 10.2529 9.99988 10.6667 10ZM10.6667 11.3333C10.4899 11.3333 10.3203 11.4036 10.1953 11.5286C10.0702 11.6536 10 11.8232 10 12C10 12.1768 10.0702 12.3464 10.1953 12.4714C10.3203 12.5964 10.4899 12.6667 10.6667 12.6667C10.8435 12.6667 11.013 12.5964 11.1381 12.4714C11.2631 12.3464 11.3333 12.1768 11.3333 12C11.3333 11.8232 11.2631 11.6536 11.1381 11.5286C11.013 11.4036 10.8435 11.3333 10.6667 11.3333ZM5.33333 6C5.72599 5.99995 6.10998 6.11548 6.43742 6.33219C6.76486 6.54891 7.02127 6.85721 7.17467 7.21867L7.21933 7.33333H13.3333C13.5033 7.33352 13.6667 7.39859 13.7902 7.51523C13.9138 7.63188 13.9882 7.7913 13.9981 7.96093C14.0081 8.13056 13.9529 8.29759 13.8438 8.42789C13.7348 8.55819 13.5801 8.64193 13.4113 8.662L13.3333 8.66667H7.22C7.0856 9.04686 6.83945 9.37756 6.51382 9.61542C6.18819 9.85327 5.79829 9.98718 5.39523 9.99957C4.99218 10.012 4.59478 9.90228 4.25515 9.68489C3.91552 9.46749 3.64951 9.15254 3.492 8.78133L3.44667 8.66667H2.66667C2.49675 8.66648 2.33331 8.60141 2.20975 8.48477C2.0862 8.36812 2.01184 8.2087 2.00189 8.03907C1.99193 7.86944 2.04712 7.70241 2.15618 7.57211C2.26524 7.44181 2.41994 7.35807 2.58867 7.338L2.66667 7.33333H3.44667C3.58467 6.94328 3.84021 6.60561 4.1781 6.36683C4.51598 6.12804 4.91959 5.99988 5.33333 6ZM5.33333 7.33333C5.15652 7.33333 4.98695 7.40357 4.86193 7.5286C4.7369 7.65362 4.66667 7.82319 4.66667 8C4.66667 8.17681 4.7369 8.34638 4.86193 8.4714C4.98695 8.59643 5.15652 8.66667 5.33333 8.66667C5.51014 8.66667 5.67971 8.59643 5.80474 8.4714C5.92976 8.34638 6 8.17681 6 8C6 7.82319 5.92976 7.65362 5.80474 7.5286C5.67971 7.40357 5.51014 7.33333 5.33333 7.33333ZM10.6667 2C11.5373 2 12.2787 2.55667 12.5533 3.33333H13.3333C13.5101 3.33333 13.6797 3.40357 13.8047 3.5286C13.9298 3.65362 14 3.82319 14 4C14 4.17681 13.9298 4.34638 13.8047 4.4714C13.6797 4.59643 13.5101 4.66667 13.3333 4.66667H12.5533C12.4156 5.05702 12.1602 5.39504 11.8223 5.63414C11.4844 5.87324 11.0806 6.00163 10.6667 6.00163C10.2527 6.00163 9.84897 5.87324 9.51107 5.63414C9.17316 5.39504 8.91774 5.05702 8.78 4.66667H2.66667C2.48986 4.66667 2.32029 4.59643 2.19526 4.4714C2.07024 4.34638 2 4.17681 2 4C2 3.82319 2.07024 3.65362 2.19526 3.5286C2.32029 3.40357 2.48986 3.33333 2.66667 3.33333H8.78C8.91801 2.94328 9.17355 2.60561 9.51143 2.36683C9.84932 2.12804 10.2529 1.99988 10.6667 2ZM10.6667 3.33333C10.4899 3.33333 10.3203 3.40357 10.1953 3.5286C10.0702 3.65362 10 3.82319 10 4C10 4.17681 10.0702 4.34638 10.1953 4.4714C10.3203 4.59643 10.4899 4.66667 10.6667 4.66667C10.8435 4.66667 11.013 4.59643 11.1381 4.4714C11.2631 4.34638 11.3333 4.17681 11.3333 4C11.3333 3.82319 11.2631 3.65362 11.1381 3.5286C11.013 3.40357 10.8435 3.33333 10.6667 3.33333Z" fill="white"/>
</svg>
